PathFileType	4	(X/Y/Z)	/Users/itak/Documents/Research/Walk-IL/dataset/trc/00010_00004.trc
DataRate	CameraRate	NumFrames	NumMarkers	Units	OrigDataRate	OrigDataStartFrame	OrigNumFrames
100.000000	100.000000	4	53	mm	100.000000	156	624
Frame#	Time	RPSI			LPSI			L3			STRN			T10			C7			CLAV			RBAK			LBAK			LSHO			LUPA			LAEL			LAOL			LWTS			LWPS			LFRA			LHPS			LHTS			RSHO			RUPA			RAEL			RAOL			RWTS			RWPS			RFRA			RIFD			RHTS			RHPS			RBHD			LFHD			RFHD			LBHD			LHIP			RHIP			RASI			LASI			LKNE			LTHI			LANK			LTIP			LTOE			LMT1			LMT5			LHEE			RKNE			RTHI			RANK			RTIP			RTOE			RMT1			RMT5			RHEE			LIFD			
		X1	Y1	Z1	X2	Y2	Z2	X3	Y3	Z3	X4	Y4	Z4	X5	Y5	Z5	X6	Y6	Z6	X7	Y7	Z7	X8	Y8	Z8	X9	Y9	Z9	X10	Y10	Z10	X11	Y11	Z11	X12	Y12	Z12	X13	Y13	Z13	X14	Y14	Z14	X15	Y15	Z15	X16	Y16	Z16	X17	Y17	Z17	X18	Y18	Z18	X19	Y19	Z19	X20	Y20	Z20	X21	Y21	Z21	X22	Y22	Z22	X23	Y23	Z23	X24	Y24	Z24	X25	Y25	Z25	X26	Y26	Z26	X27	Y27	Z27	X28	Y28	Z28	X29	Y29	Z29	X30	Y30	Z30	X31	Y31	Z31	X32	Y32	Z32	X33	Y33	Z33	X34	Y34	Z34	X35	Y35	Z35	X36	Y36	Z36	X37	Y37	Z37	X38	Y38	Z38	X39	Y39	Z39	X40	Y40	Z40	X41	Y41	Z41	X42	Y42	Z42	X43	Y43	Z43	X44	Y44	Z44	X45	Y45	Z45	X46	Y46	Z46	X47	Y47	Z47	X48	Y48	Z48	X49	Y49	Z49	X50	Y50	Z50	X51	Y51	Z51	X52	Y52	Z52	X53	Y53	Z53	

157	1.56	935.25927734375	1063.164184570312	-164.3173980712891	900.77294921875	1065.692626953125	-323.8745727539062	917.3626708984375	1128.930297851562	-247.4285736083984	1165.123291015625	1302.689331054688	-274.7452392578125	911.982666015625	1277.125610351562	-239.8673553466797	984.073974609375	1538.491088867188	-248.0518951416016	1134.795776367188	1432.637451171875	-268.93212890625	932.6962890625	1403.530395507812	-165.3396148681641	950.4611206054688	1503.73681640625	-344.4591674804688	1042.307861328125	1504.46923828125	-431.2709350585938	991.9002685546875	1385.255737304688	-506.312744140625	973.558349609375	1168.676635742188	-535.5475463867188	927.6450805664062	1156.994873046875	-441.4490051269531	1066.6220703125	917.3690795898438	-491.9154052734375	986.0185546875	901.5330200195312	-526.7767944335938	983.9630737304688	1052.670776367188	-544.239013671875	1020.423156738281	812.59765625	-530.4453735351562	1087.443725585938	823.7859497070312	-508.6607055664062	1084.011596679688	1510.396606445312	-87.46635437011719	1075.083251953125	1437.39501953125	-15.36209011077881	1023.304626464844	1172.712158203125	10.48359680175781	1005.851257324219	1145.79150390625	-84.36328125	1130.062744140625	906.217041015625	-35.46759796142578	1071.619995117188	896.1156616210938	34.34065246582031	1033.1455078125	1096.409912109375	23.74118995666504	1136.797729492188	718.0269775390625	-46.45783615112305	1157.3251953125	794.2186889648438	-22.9401912689209	1105.575805664062	794.2050170898438	31.30067253112793	1048.23828125	1710.729248046875	-190.559814453125	1207.160522460938	1723.31298828125	-329.1310424804688	1217.147216796875	1730.978637695312	-231.3658294677734	1025.501708984375	1703.266967773438	-332.8529357910156	969.57421875	965.0889282226562	-452.8695983886719	1061.427490234375	946.21044921875	-87.99681854248047	1146.778930664062	972.6348876953125	-181.3495178222656	1095.894653320312	1003.166076660156	-409.7355041503906	1076.48974609375	522.5692138671875	-444.2365112304688	1025.108032226562	657.2555541992188	-471.5813598632812	971.2454833984375	37.71872711181641	-470.0372009277344	995.3878784179688	288.6742858886719	-472.3945007324219	1190.8251953125	34.96280670166016	-405.3800964355469	1131.462280273438	43.10247421264648	-388.6391296386719	1096.084350585938	33.24186325073242	-488.3903503417969	902.6728515625	44.51339721679688	-416.5440673828125	1061.016967773438	511.7166748046875	-144.6075592041016	1078.812255859375	781.3289184570312	-97.78724670410156	962.5873413085938	33.68898391723633	-178.6795959472656	1038.802124023438	389.7662658691406	-145.9251708984375	1192.245727539062	29.98709487915039	-230.6656341552734	1127.710693359375	36.93746566772461	-257.0933837890625	1111.621215820312	30.4173755645752	-160.6925354003906	904.80859375	35.08522415161133	-222.0096435546875	1098.573852539062	732.5445556640625	-480.4399719238281	
158	1.57	933.922607421875	1063.434936523438	-163.0362243652344	898.29443359375	1066.307739257812	-322.40625	915.7478637695312	1129.53369140625	-245.8964385986328	1164.117553710938	1302.379028320312	-274.4763488769531	911.0695190429688	1277.758178710938	-238.1588134765625	984.0386962890625	1538.801879882812	-246.5361785888672	1134.290649414062	1432.39990234375	-268.3060913085938	932.7119140625	1403.967651367188	-163.6051330566406	949.8956298828125	1504.322998046875	-342.83251953125	1041.311157226562	1504.751342773438	-430.1600341796875	990.0491943359375	1385.745971679688	-504.9605102539062	970.7460327148438	1169.238891601562	-534.1526489257812	925.2057495117188	1157.640502929688	-439.8048095703125	1063.484008789062	917.7655639648438	-491.0928649902344	982.5986328125	902.0543212890625	-525.461669921875	980.7866821289062	1053.203002929688	-542.9126586914062	1016.860229492188	813.1005249023438	-529.3662719726562	1084.018798828125	824.1397705078125	-507.9918823242188	1084.865478515625	1510.194458007812	-86.57053375244141	1076.188232421875	1437.20703125	-14.43745803833008	1024.176391601562	1172.654052734375	12.02582168579102	1005.931274414062	1145.711669921875	-82.67657470703125	1130.205322265625	906.0147094726562	-34.70724868774414	1072.325561523438	896.0241088867188	35.58516311645508	1034.027465820312	1096.334106445312	25.23586273193359	1136.628173828125	717.80859375	-45.62736892700195	1157.451904296875	793.9910888671875	-22.3493595123291	1106.116821289062	794.0570068359375	32.29962921142578	1048.108520507812	1710.435424804688	-189.4673767089844	1207.069580078125	1723.439331054688	-327.8670959472656	1216.959228515625	1731.05126953125	-230.0681304931641	1025.507202148438	1703.073852539062	-331.7935180664062	966.1206665039062	965.7159423828125	-451.9660034179688	1060.229248046875	946.072265625	-87.73688507080078	1145.073852539062	972.3867797851562	-181.6092224121094	1092.792236328125	1003.446838378906	-409.5596008300781	1073.933349609375	523.1444702148438	-443.8639831542969	1022.296936035156	657.8309936523438	-471.1039123535156	966.7425537109375	38.34534072875977	-469.4170837402344	991.888671875	289.2989501953125	-471.8605651855469	1186.027221679688	36.61217880249023	-404.1492919921875	1126.634033203125	44.46115493774414	-387.532958984375	1091.596557617188	34.42309188842773	-487.4176330566406	897.9954833984375	44.90262985229492	-416.0470581054688	1060.0732421875	511.8161926269531	-144.5186767578125	1077.786254882812	781.46240234375	-97.84920501708984	962.55419921875	33.6278076171875	-178.5894165039062	1037.969116210938	389.7848205566406	-145.6940460205078	1192.185302734375	29.99086380004883	-230.6889038085938	1127.679931640625	36.95770645141602	-257.0532836914062	1111.61181640625	30.39813613891602	-160.6596374511719	904.8134765625	35.05257415771484	-221.9248504638672	1095.146728515625	732.8372192382812	-479.8255920410156	
159	1.58	932.5935668945312	1063.685913085938	-161.8033599853516	895.9623413085938	1066.895751953125	-320.9943237304688	914.1505126953125	1130.099975585938	-244.4404602050781	1163.030517578125	1302.123779296875	-274.2541809082031	910.0941162109375	1278.360107421875	-236.5384216308594	983.8582153320312	1539.104858398438	-245.1176452636719	1133.661987304688	1432.1962890625	-267.7342529296875	932.5989379882812	1404.382690429688	-161.9770660400391	949.20654296875	1504.885986328125	-341.2984619140625	1040.206420898438	1505.033935546875	-429.1219177246094	988.1329345703125	1386.228149414062	-503.6894226074219	967.9326782226562	1169.786254882812	-532.8234252929688	922.777099609375	1158.275146484375	-438.2289428710938	1060.270263671875	918.105224609375	-490.2912292480469	979.1146850585938	902.553466796875	-524.1962890625	977.5969848632812	1053.719116210938	-541.6408081054688	1013.207824707031	813.5680541992188	-528.3255615234375	1080.502685546875	824.4518432617188	-507.355712890625	1085.526245117188	1510.000854492188	-85.74091339111328	1077.08984375	1437.027221679688	-13.59482192993164	1024.918579101562	1172.589111328125	13.47214126586914	1005.918762207031	1145.592895507812	-81.07589721679688	1130.369140625	905.8539428710938	-33.98740005493164	1073.051513671875	895.9482421875	36.77080154418945	1034.810546875	1096.25390625	26.63993835449219	1136.584594726562	717.6346435546875	-44.81839370727539	1157.660034179688	793.8181762695312	-21.77937889099121	1106.756591796875	793.94873046875	33.27650833129883	1047.890869140625	1710.161010742188	-188.4269866943359	1206.908935546875	1723.564208984375	-326.6535339355469	1216.69091796875	1731.103881835938	-228.8187866210938	1025.431396484375	1702.934326171875	-330.7968139648438	962.7937622070312	966.3399047851562	-451.1074523925781	1059.044799804688	945.9495239257812	-87.51183319091797	1143.39697265625	972.2001953125	-181.8664093017578	1089.818969726562	1003.782165527344	-409.4094543457031	1071.24072265625	523.6488647460938	-443.4642333984375	1019.540954589844	658.3812255859375	-470.5073547363281	961.3689575195312	39.06025314331055	-468.6886291503906	987.9154052734375	289.9482727050781	-471.2619934082031	1180.433837890625	38.14228439331055	-403.0955200195312	1121.036254882812	45.7513313293457	-386.5324401855469	1086.190551757812	35.65814971923828	-486.4972229003906	892.55859375	45.41006088256836	-415.3744201660156	1059.143676757812	511.9050903320312	-144.4871673583984	1076.767211914062	781.5995483398438	-97.93245697021484	962.5155639648438	33.57118225097656	-178.5058288574219	1037.127075195312	389.8175964355469	-145.4958190917969	1192.127685546875	29.99397850036621	-230.7136535644531	1127.652954101562	36.97744750976562	-257.0145263671875	1111.607666015625	30.38278770446777	-160.6284484863281	904.8182983398438	35.02030563354492	-221.843994140625	1091.58447265625	733.07763671875	-479.2379455566406	
160	1.59	931.2489624023438	1063.930419921875	-160.6272888183594	893.781494140625	1067.458618164062	-319.6404418945312	912.572021484375	1130.6298828125	-243.0638122558594	1161.871704101562	1301.925659179688	-274.0697631835938	909.0534057617188	1278.926147460938	-235.0001373291016	983.5291748046875	1539.399169921875	-243.7933044433594	1132.911987304688	1432.033813476562	-267.2123107910156	932.3553466796875	1404.77294921875	-160.4528961181641	948.3872680664062	1505.423095703125	-339.8542785644531	1038.987548828125	1505.31884765625	-428.1463317871094	986.1502075195312	1386.70703125	-502.4967651367188	965.11669921875	1170.328247070312	-531.5592041015625	920.3743896484375	1158.910400390625	-436.7181396484375	1056.986572265625	918.4019775390625	-489.5169982910156	975.5810546875	903.0442504882812	-522.9893188476562	974.3975219726562	1054.225830078125	-540.425537109375	1009.466003417969	814.001220703125	-527.3239135742188	1076.899291992188	824.723388671875	-506.7486877441406	1085.98583984375	1509.827270507812	-84.97447204589844	1077.778930664062	1436.868408203125	-12.82702541351318	1025.515014648438	1172.531372070312	14.81346607208252	1005.818115234375	1145.452514648438	-79.57020568847656	1130.550170898438	905.7504272460938	-33.3092155456543	1073.783081054688	895.8988647460938	37.88950729370117	1035.472290039062	1096.183471679688	27.94275665283203	1136.665771484375	717.5209350585938	-44.04002380371094	1157.944580078125	793.7164306640625	-21.22990036010742	1107.4853515625	793.8944091796875	34.22665023803711	1047.570556640625	1709.919677734375	-187.4476470947266	1206.673461914062	1723.681030273438	-325.4894104003906	1216.338745117188	1731.13525390625	-227.6209411621094	1025.265625	1702.851440429688	-329.8642272949219	959.6171875	966.95654296875	-450.2943420410156	1057.8671875	945.8421630859375	-87.31784820556641	1141.746704101562	972.0643920898438	-182.1061706542969	1086.986572265625	1004.166198730469	-409.2800903320312	1068.377685546875	524.0792846679688	-443.0545043945312	1016.811950683594	658.9031372070312	-469.8089599609375	955.1498413085938	39.85271453857422	-467.8667602539062	983.45361328125	290.6186828613281	-470.6150817871094	1174.096923828125	39.50263214111328	-402.2949829101562	1114.728637695312	46.92686462402344	-385.6984252929688	1079.889282226562	36.89279174804688	-485.6808776855469	886.4046020507812	46.04590225219727	-414.5223388671875	1058.234741210938	511.9659729003906	-144.4924468994141	1075.746459960938	781.7353515625	-98.02828216552734	962.4730224609375	33.51791381835938	-178.4278717041016	1036.292724609375	389.8632507324219	-145.3107604980469	1192.072387695312	29.99727249145508	-230.7391204833984	1127.6298828125	36.99631881713867	-256.9772644042969	1111.607299804688	30.37087249755859	-160.5981140136719	904.8261108398438	34.98849105834961	-221.7659606933594	1087.898193359375	733.2846069335938	-478.6754150390625	
